<svg xmlns="http://www.w3.org/2000/svg" viewBox="956 996 4208 648" style="fill-rule:evenodd;clip-rule:evenodd"><path fill="#E4191F" d="M3768.02 1618.13l0 -602.83 266.7 0c41.77,0 78.46,7.62 110.07,22.86 31.61,15.24 56.45,36.41 74.51,63.5 18.06,27.09 27.09,58.7 27.09,94.83 0,41.77 -12.27,77.61 -36.83,107.53 -24.55,29.91 -57.99,50.8 -100.33,62.65l176.11 251.46 -192.2 0 -153.24 -240.45 -2.54 0 0 240.45 -169.34 0zm232.05 -478.39l-70.27 0 0 123.62 70.27 0c23.14,0 40.78,-5.65 52.92,-16.94 12.13,-11.29 18.2,-26.24 18.2,-44.87 0,-18.63 -6.07,-33.59 -18.2,-44.88 -12.14,-11.28 -29.78,-16.93 -52.92,-16.93z"></path><polygon fill="#E4191F" points="3680.02,1620.65 3680.02,1017.82 3251.56,1017.82 3198.46,1158.37 3510.68,1158.37 3510.68,1244.73 3255.1,1244.73 3205.14,1381.89 3510.68,1381.89 3510.68,1480.1 3079.5,1480.1 3027.19,1620.65 "></polygon><polygon fill="#E4191F" points="2778.33,1620.65 2557.35,1017.82 2736.84,1017.82 2860.45,1386.97 2986.61,1017.82 3163.56,1017.82 2939.19,1620.65 "></polygon><polygon fill="#E4191F" points="2532.78,1620.65 2532.78,1017.82 1845.24,1017.82 1845.24,1158.37 2363.44,1158.37 2363.44,1244.73 1933.24,1244.73 1933.24,1381.89 2363.44,1381.89 2363.44,1480.1 2072.19,1480.1 2072.19,1620.65 "></polygon><polygon fill="#E4191F" points="1587.9,1620.65 1587.9,1017.82 1757.24,1017.82 1757.24,1476.72 2007.85,1476.72 2007.85,1620.65 "></polygon><path fill="#E4191F" d="M1297.49 1630.81c-46.28,0 -89.32,-7.76 -129.12,-23.28 -39.79,-15.53 -74.64,-37.4 -104.56,-65.62 -29.92,-28.22 -53.2,-61.38 -69.85,-99.48 -16.65,-38.1 -24.98,-79.45 -24.98,-124.04 0,-45.16 8.33,-86.64 24.98,-124.46 16.65,-37.82 39.79,-70.56 69.43,-98.22 29.63,-27.65 64.2,-49.24 103.71,-64.77 39.52,-15.52 82.41,-23.28 128.7,-23.28 46.85,0 89.75,7.34 128.69,22.01 38.95,14.68 72.82,35 101.6,60.96l-112.6 113.46c-13.55,-14.68 -30.06,-26.25 -49.54,-34.72 -19.47,-8.46 -42.19,-12.7 -68.15,-12.7 -45.16,0 -82.13,14.4 -110.92,43.19 -28.78,28.78 -43.18,68.29 -43.18,118.53 0,50.23 14.4,90.03 43.18,119.38 28.79,29.35 65.76,44.03 110.92,44.03 50.23,0 90.31,-15.53 120.23,-46.57l113.45 113.45c-29.92,25.97 -63.5,46.15 -100.75,60.54 -37.26,14.39 -81,21.59 -131.24,21.59z"></path><path fill="#E4191F" d="M4658.35 1015.33c-39.09,0 -74.69,23.06 -92.93,60.2 -3.73,7.59 -11.56,12.17 -20.23,11.63 -1.91,-0.14 -3.77,-0.42 -6.23,-0.72 -73.86,1.44 -132.74,59.03 -136.9,134.85 0.19,1.5 -37.19,13.19 -61.38,40.35 -32.91,36.96 -51.88,108.58 3.91,166.02 6.86,7.04 7.84,18.06 2.32,26.21 -13.65,20.2 -20.87,43.79 -20.87,68.21 0,38.01 16.88,72.75 46.31,95.3l0.99 0.75 135.79 0c9.68,-13.51 15.38,-30.06 15.38,-47.94 0,-39.64 -28,-72.74 -65.3,-80.61 5.51,-1.16 11.23,-1.78 17.09,-1.78 45.5,0 82.39,36.89 82.39,82.39 0,17.88 -5.7,34.43 -15.38,47.94l164.33 0 0 -138.87c-6.46,-13.58 -16.72,-25.56 -30.38,-34.19 -33.52,-21.16 -76.46,-15.16 -103.03,12.18 1.96,-5.28 4.5,-10.45 7.62,-15.4 24.3,-38.47 75.18,-49.97 113.66,-25.68 4.4,2.78 8.44,5.91 12.13,9.33l0 -397.29 -1.94 -1.03c-14.54,-7.76 -30.91,-11.85 -47.35,-11.85zm-46.87 156.47c5.86,0 11.58,0.62 17.09,1.78 -37.3,7.87 -65.3,40.97 -65.3,80.61 0,39.64 28,72.74 65.3,80.61 -5.51,1.16 -11.23,1.78 -17.09,1.78 -45.5,0 -82.39,-36.89 -82.39,-82.39 0,-45.5 36.89,-82.39 82.39,-82.39z"></path><path fill="#E4191F" d="M4800.93 1015.33c39.09,0 74.69,23.06 92.93,60.2 3.73,7.59 11.56,12.17 20.23,11.63 1.91,-0.14 3.77,-0.42 6.23,-0.72 73.86,1.44 132.74,59.03 136.9,134.85 -0.19,1.5 37.19,13.19 61.38,40.35 32.91,36.96 51.88,108.58 -3.91,166.02 -6.86,7.04 -7.84,18.06 -2.32,26.21 13.65,20.2 20.87,43.79 20.87,68.21 0,38.01 -16.88,72.75 -46.31,95.3l-0.99 0.75 -135.79 0c-9.68,-13.51 -15.38,-30.06 -15.38,-47.94 0,-39.64 28,-72.74 65.3,-80.61 -5.51,-1.16 -11.23,-1.78 -17.09,-1.78 -45.5,0 -82.39,36.89 -82.39,82.39 0,17.88 5.7,34.43 15.38,47.94l-164.33 0 0 -138.87c6.46,-13.58 16.72,-25.56 30.38,-34.19 33.52,-21.16 76.46,-15.16 103.03,12.18 -1.96,-5.28 -4.5,-10.45 -7.62,-15.4 -24.3,-38.47 -75.18,-49.97 -113.66,-25.68 -4.4,2.78 -8.44,5.91 -12.13,9.33l0 -397.29 1.94 -1.03c14.54,-7.76 30.91,-11.85 47.35,-11.85zm46.87 156.47c-5.86,0 -11.58,0.62 -17.09,1.78 37.3,7.87 65.3,40.97 65.3,80.61 0,39.64 -28,72.74 -65.3,80.61 5.51,1.16 11.23,1.78 17.09,1.78 45.5,0 82.39,-36.89 82.39,-82.39 0,-45.5 -36.89,-82.39 -82.39,-82.39z"></path></svg>